<?xml version="1.0" encoding="UTF-8"?>
<svg width="489px" height="279px" viewBox="0 0 489 279" version="1.1" xmlns="http://www.w3.org/2000/svg" xmlns:xlink="http://www.w3.org/1999/xlink">
    <!-- Generator: Sketch 48.2 (47327) - http://www.bohemiancoding.com/sketch -->
    <title>Group 3</title>
    <desc>Created with Sketch.</desc>
    <defs></defs>
    <g id="404" stroke="none" stroke-width="1" fill="none" fill-rule="evenodd" transform="translate(-480.000000, -159.000000)">
        <g id="Group-3" transform="translate(463.000000, 145.000000)">
            <g id="1" opacity="0.6" transform="translate(256.271756, 146.434637) rotate(14.000000) translate(-256.271756, -146.434637) translate(154.771756, 20.934637)">
                <rect id="Rectangle-2" stroke="#A5D7F9" stroke-width="2" x="1" y="49" width="201" height="201"></rect>
                <g id="Logo-SVG" transform="translate(1.000000, 78.000000)" fill="#A5D7F9" fill-rule="nonzero">
                    <path d="M0,100.135135 L201,100.135135 L201,125 L0,125 L0,100.135135 Z M41.8500584,114.486189 L44.4420292,114.486189 C46.0787284,114.486189 47.3665501,114.065784 48.3055328,113.224959 C49.2445156,112.384135 49.714,111.27188 49.714,109.888161 C49.714,108.504442 49.2445156,107.388877 48.3055328,106.541432 C47.3665501,105.693986 46.0787284,105.27027 44.4420292,105.27027 L38.994,105.27027 L38.994,119.72973 L41.8500584,119.72973 L41.8500584,114.486189 Z M41.808,112.162162 L41.808,107.432432 L44.4383704,107.432432 C45.2523004,107.432432 45.8660473,107.658362 46.2796296,108.110229 C46.693212,108.562095 46.9,109.13434 46.9,109.826982 C46.9,110.50643 46.6915576,111.065483 46.2746667,111.504156 C45.8577757,111.942829 45.245683,112.162162 44.4383704,112.162162 L41.808,112.162162 Z M70.8172967,117.577962 L70.8172967,105 L68.206,105 L68.206,119.864865 L76.648,119.864865 L76.648,117.577962 L70.8172967,117.577962 Z M102.953279,116.659118 L103.928263,119.864865 L106.932,119.864865 L102.116172,105 L99.1715247,105 L94.336,119.864865 L97.3397373,119.864865 L98.3048725,116.659118 L102.953279,116.659118 Z M98.624,114.459459 L100.207562,109.189189 L100.266212,109.189189 L101.84,114.459459 L98.624,114.459459 Z M134.897647,114.873525 L132.114944,114.873525 C132.114944,115.81292 131.90354,116.509187 131.480724,116.962346 C131.057908,117.415505 130.417139,117.642081 129.558397,117.642081 C128.653769,117.642081 127.947448,117.291467 127.439413,116.590228 C126.931379,115.88899 126.677366,114.982685 126.677366,113.871288 L126.677366,110.983654 C126.677366,109.878872 126.918269,108.977529 127.400082,108.279598 C127.881895,107.581667 128.552162,107.232707 129.410904,107.232707 C130.335199,107.232707 131.018576,107.459283 131.461058,107.912442 C131.90354,108.365601 132.124777,109.055252 132.124777,109.981417 L134.917313,109.981417 L134.936978,109.921878 C134.963199,108.360629 134.484671,107.150018 133.501379,106.290008 C132.518087,105.429998 131.154609,105 129.410904,105 C127.739308,105 126.38894,105.560652 125.359761,106.681972 C124.330582,107.803293 123.816,109.243788 123.816,111.0035 L123.816,113.871288 C123.816,115.637616 124.343692,117.07811 125.399092,118.192815 C126.454493,119.307521 127.840914,119.864865 129.558397,119.864865 C131.243104,119.864865 132.563974,119.428251 133.521045,118.55501 C134.478116,117.681769 134.943534,116.474466 134.917313,114.933064 L134.897647,114.873525 Z M160.906167,113.330858 L160.906167,111.033747 L155.792933,111.033747 L155.792933,107.297112 L161.853062,107.297112 L161.853062,105 L153.028,105 L153.028,119.864865 L161.872,119.864865 L161.872,117.577962 L155.792933,117.577962 L155.792933,113.330858 L160.906167,113.330858 Z" id="Combined-Shape"></path>
                    <rect id="Rectangle" transform="translate(64.027667, 41.554054) rotate(60.000000) translate(-64.027667, -41.554054) " x="31.48" y="36.2162162" width="65.0953333" height="10.6756757"></rect>
                    <path d="M94.1097036,50.0920147 C94.1097036,60.3002112 91.3627798,68.7152059 85.8688504,75.3372516 C80.3749209,81.9592973 73.223167,85.2702703 64.4133747,85.2702703 C55.6360908,85.2702703 48.5168451,81.9498101 43.055424,75.3087901 C37.5940029,68.66777 34.8633333,60.2622625 34.8633333,50.0920147 L34.8633333,35.1782555 C34.8633333,25.0459566 37.5858759,16.6499359 43.0310428,9.98994156 C48.4762097,3.32994722 55.5710744,0 64.3158499,0 C73.125642,0 80.2936501,3.32994722 85.8200879,9.98994156 C91.3465261,16.6499359 94.1097036,25.0459566 94.1097036,35.1782555 L94.1097036,50.0920147 Z M79.919832,35.0644104 C79.919832,28.6131336 78.5382435,23.3193714 75.7750242,19.1829647 C73.0118053,15.046558 69.1921187,12.9783856 64.3158499,12.9783856 C59.5045979,12.9783856 55.7580542,15.046558 53.0761064,19.1829647 C50.3941585,23.3193714 49.0532047,28.6131336 49.0532047,35.0644104 L49.0532047,50.0920147 C49.0532047,56.657137 50.4022855,62.0078217 53.1004876,66.1442284 C55.7986897,70.280635 59.5696144,72.3488075 64.4133747,72.3488075 C69.2896436,72.3488075 73.0930761,70.280635 75.8237867,66.1442284 C78.5544972,62.0078217 79.919832,56.657137 79.919832,50.0920147 L79.919832,35.0644104 Z M165.46,84.227767 L150.94837,84.227767 L121.776018,27.6025617 L121.477834,27.6602249 L121.477834,84.227767 L106.966204,84.227767 L106.966204,0.270232401 L121.477834,0.270232401 L150.650186,56.8377748 L150.94837,56.7801116 L150.94837,0.270232401 L165.46,0.270232401 L165.46,84.227767 Z" id="ON"></path>
                </g>
                <ellipse id="Oval" stroke="#A5D7F9" stroke-width="2" cx="101.991505" cy="12.0559937" rx="71.9915054" ry="12.0559937"></ellipse>
            </g>
            <g id="wings-R" transform="translate(428.956455, 169.500124) rotate(9.000000) translate(-428.956455, -169.500124) translate(350.956455, 112.500124)">
                <path d="M0.113471103,104.100814 C13.3284711,111.001814 24.4094711,113.370814 33.3714711,113.370814 C40.3414711,113.370814 46.0334711,111.945814 50.4534711,110.131814 C57.8494711,107.094814 62.8014711,102.565814 65.5914711,99.4148141 C69.6194711,100.240814 73.4934711,100.659814 77.2014711,100.659814 C81.9814711,100.659814 86.4914711,99.9718141 90.7164711,98.5958141 C99.8804711,95.6118141 105.456471,90.0058141 108.396471,86.1268141 C110.629471,86.4908141 112.819471,86.6698141 114.954471,86.6698141 C133.842471,86.6688141 148.600471,73.3848141 154.883471,64.2388141 C155.843471,62.8398141 156.166471,61.0968141 155.771471,59.4458141 C155.376471,57.7938141 154.300471,56.3868141 152.809471,55.5738141 C152.221471,55.2538141 93.7104711,23.3518141 64.9924711,8.68281414 C37.2144711,-5.50518586 17.7254711,2.65881414 8.9444711,8.39081414" id="Path" fill="#6FBFF6"></path>
                <path d="M100.690209,80.1918837 L60.0920256,60.3178344 C56.667528,58.6406703 59.4357962,53.0700986 57.7609327,56.4934459 C56.084919,59.9167932 57.5009608,64.0498868 60.9254584,65.7259006 L101.548949,85.6137536 C99.2230055,87.7809533 92.9114232,93.2876241 88.4171296,94.7508289 C75.7797328,98.8666678 59.7421847,92.8405659 39.8692857,81.9355484 C36.531062,80.1030914 34.1552509,80.4994385 32.3216436,83.8411131 C31.0992387,86.0688962 34.3540451,88.0081689 42.0860629,89.6589311 C51.4312078,94.163173 57.8645341,97.1005003 61.3860418,98.4709128 C60.3342277,99.2514088 57.1035787,103.927927 52.53722,106.161974 C48.4689426,108.15234 43.4159182,109.540394 41.7201293,109.80898 C32.6163296,111.25088 18.7096198,107.907478 0,99.7787732 L7.53573831,12.2345702 C27.167766,3.45510262 45.4075608,3.36794272 62.2551226,11.9730905 C88.6192677,25.4375662 133.601151,50.8330132 152.081014,60.8741416 C144.179478,68.9102653 121.722629,90.3687497 100.690209,80.1918837 Z" id="Path" fill="#1E9DF2"></path>
            </g>
            <g id="wings-L" transform="translate(92.307834, 90.288875) scale(-1, 1) rotate(-19.000000) translate(-92.307834, -90.288875) translate(14.307834, 33.288875)">
                <path d="M0.113471103,104.100814 C13.3284711,111.001814 24.4094711,113.370814 33.3714711,113.370814 C40.3414711,113.370814 46.0334711,111.945814 50.4534711,110.131814 C57.8494711,107.094814 62.8014711,102.565814 65.5914711,99.4148141 C69.6194711,100.240814 73.4934711,100.659814 77.2014711,100.659814 C81.9814711,100.659814 86.4914711,99.9718141 90.7164711,98.5958141 C99.8804711,95.6118141 105.456471,90.0058141 108.396471,86.1268141 C110.629471,86.4908141 112.819471,86.6698141 114.954471,86.6698141 C133.842471,86.6688141 148.600471,73.3848141 154.883471,64.2388141 C155.843471,62.8398141 156.166471,61.0968141 155.771471,59.4458141 C155.376471,57.7938141 154.300471,56.3868141 152.809471,55.5738141 C152.221471,55.2538141 93.7104711,23.3518141 64.9924711,8.68281414 C37.2144711,-5.50518586 17.7254711,2.65881414 8.9444711,8.39081414" id="Path" fill="#6FBFF6"></path>
                <path d="M100.690209,80.1918837 L60.0920256,60.3178344 C56.667528,58.6406703 59.4357962,53.0700986 57.7609327,56.4934459 C56.084919,59.9167932 57.5009608,64.0498868 60.9254584,65.7259006 L101.548949,85.6137536 C99.2230055,87.7809533 92.9114232,93.2876241 88.4171296,94.7508289 C75.7797328,98.8666678 59.7421847,92.8405659 39.8692857,81.9355484 C36.531062,80.1030914 34.1552509,80.4994385 32.3216436,83.8411131 C31.0992387,86.0688962 34.3540451,88.0081689 42.0860629,89.6589311 C51.4312078,94.163173 57.8645341,97.1005003 61.3860418,98.4709128 C60.3342277,99.2514088 57.1035787,103.927927 52.53722,106.161974 C48.4689426,108.15234 43.4159182,109.540394 41.7201293,109.80898 C32.6163296,111.25088 18.7096198,107.907478 0,99.7787732 L7.53573831,12.2345702 C27.167766,3.45510262 45.4075608,3.36794272 62.2551226,11.9730905 C88.6192677,25.4375662 133.601151,50.8330132 152.081014,60.8741416 C144.179478,68.9102653 121.722629,90.3687497 100.690209,80.1918837 Z" id="Path" fill="#1E9DF2"></path>
            </g>
        </g>
    </g>
</svg>