<svg xmlns="http://www.w3.org/2000/svg" xmlns:xlink="http://www.w3.org/1999/xlink" width="466" height="279" viewBox="0 0 466 279"><defs><path id="mi62a" d="M617.79 416.81v-203h203v203z"/><path id="mi62c" d="M618.79 368.81v-24.86h201v24.86zm44.44-10.5c1.64 0 2.93-.43 3.87-1.27a4.26 4.26 0 0 0 1.4-3.34 4.3 4.3 0 0 0-1.4-3.34 5.55 5.55 0 0 0-3.87-1.27h-5.45v14.45h2.86v-5.24zm-2.63-7.06h2.63c.81 0 1.43.22 1.84.68.41.45.62 1.02.62 1.71 0 .68-.2 1.24-.63 1.68-.41.44-1.02.66-1.83.66h-2.63zm29-2.44H687v14.87h8.44v-2.29h-5.83zm33.12 14.87h3l-4.81-14.87h-2.95l-4.83 14.87h3l.96-3.2h4.65zM719 353h.06l1.57 5.27h-3.22zm31.9 5.69c0 .94-.2 1.63-.63 2.09-.42.45-1.06.68-1.92.68-.9 0-1.61-.35-2.12-1.05-.5-.7-.76-1.61-.76-2.72v-2.9c0-1.1.24-2 .72-2.7a2.3 2.3 0 0 1 2.01-1.04c.93 0 1.6.22 2.05.68.44.45.66 1.14.66 2.07h2.8l.02-.06a4.46 4.46 0 0 0-1.44-3.64c-.98-.86-2.35-1.29-4.09-1.29-1.67 0-3.02.57-4.05 1.69a6.14 6.14 0 0 0-1.54 4.32v2.87c0 1.76.52 3.2 1.58 4.32a5.46 5.46 0 0 0 4.16 1.67c1.68 0 3-.44 3.96-1.31a4.54 4.54 0 0 0 1.4-3.62l-.02-.06zm28.8-3.84h-5.12v-3.74h6.06v-2.3h-8.82v14.87h8.84v-2.29h-6.08v-4.24h5.12z"/><path id="mi62d" d="M661.92 259.85l9.25-5.34 32.55 56.38-9.25 5.34z"/><path id="mi62e" d="M712.9 293.9c0 10.21-2.75 18.63-8.24 25.25-5.5 6.62-12.65 9.93-21.46 9.93-8.78 0-15.9-3.32-21.36-9.96-5.46-6.64-8.19-15.05-8.19-25.22V279c0-10.13 2.72-18.53 8.17-25.19 5.44-6.66 12.54-9.99 21.28-9.99 8.81 0 15.98 3.33 21.5 9.99 5.53 6.66 8.3 15.06 8.3 25.19zm-14.2-15.03c0-6.45-1.38-11.74-4.14-15.88-2.76-4.13-6.58-6.2-11.46-6.2-4.8 0-8.56 2.07-11.24 6.2-2.68 4.14-4.02 9.43-4.02 15.88v15.03c0 6.57 1.35 11.92 4.05 16.05 2.7 4.14 6.47 6.2 11.31 6.2 4.88 0 8.68-2.06 11.41-6.2 2.73-4.13 4.1-9.48 4.1-16.05zm85.55 49.17h-14.51l-29.18-56.63-.3.06v56.57h-14.5v-83.96h14.5l29.18 56.57.3-.06v-56.51h14.5z"/><path id="mi62f" d="M647.79 177.87c0-6.66 32.23-12.06 71.99-12.06s71.99 5.4 71.99 12.05c0 6.66-32.23 12.06-71.99 12.06s-71.99-5.4-71.99-12.05z"/><path id="mi62g" d="M820.25 258.14c2.43-.38 24.5-18.67 63.56-13.3 39.07 5.37 48.85 17.75 64.95 30.96 16.1 13.22 8.34 34.83 3.8 37.98-4.55 3.14-15.26-24.7-24.03-23.98-8.77.73 4.69 22.9-6.7 19.15-11.4-3.75-29.72-26.07-38.18-28.42-8.46-2.35 10.74 20.8-.99 20.14-11.72-.66-31.87-22.97-39.64-22.43-7.76.54 5.67 16.3-1.03 18.21-6.7 1.92-22.5-17.17-22.5-17.17s-1.67-20.75.76-21.14z"/><path id="mi62h" d="M617.86 251.33c-2.42-.39-24.4-18.6-63.3-13.25-38.91 5.35-48.65 17.68-64.69 30.84-16.03 13.16-8.3 34.69-3.77 37.82 4.52 3.13 15.19-24.6 23.92-23.88 8.74.73-4.67 22.8 6.68 19.07 11.35-3.74 29.6-25.96 38.02-28.3 8.43-2.35-10.7 20.71.98 20.05 11.68-.65 31.75-22.88 39.48-22.34 7.73.55-5.65 16.23 1.03 18.14 6.67 1.92 22.41-17.1 22.41-17.1s1.66-20.67-.76-21.05z"/><clipPath id="mi62b"><use fill="#fff" xlink:href="#mi62a"/></clipPath></defs><g><g opacity=".6" transform="translate(-485 -159)"><use fill="#fff" fill-opacity="0" stroke="#fff" stroke-miterlimit="50" stroke-width="4" clip-path="url(&quot;#mi62b&quot;)" xlink:href="#mi62a"/></g><g opacity=".6" transform="translate(-485 -159)"><use fill="#fff" xlink:href="#mi62c"/></g><g opacity=".6" transform="translate(-485 -159)"><use fill="#fff" xlink:href="#mi62d"/></g><g opacity=".6" transform="translate(-485 -159)"><use fill="#fff" xlink:href="#mi62e"/></g><g opacity=".36" transform="translate(-485 -159)"><use fill="#fff" fill-opacity="0" stroke="#fff" stroke-miterlimit="50" stroke-width="2" xlink:href="#mi62f"/></g><g opacity=".36" transform="translate(-485 -159)"><use fill="#fff" xlink:href="#mi62g"/></g><g opacity=".36" transform="translate(-485 -159)"><use fill="#fff" xlink:href="#mi62h"/></g></g></svg>