<svg xmlns="http://www.w3.org/2000/svg" xmlns:xlink="http://www.w3.org/1999/xlink" width="203" height="203" viewBox="0 0 203 203"><defs><path id="qxa9a" d="M516 828V625h203v203z"/><path id="qxa9c" d="M517 779.86V755h201v24.86z"/><path id="qxa9d" d="M562.44 685.98c0-1.14.92-2.06 2.06-2.06h36.98c1.14 0 2.06.92 2.06 2.06v2.04c0 1.14-.92 2.06-2.06 2.06H564.5a2.06 2.06 0 0 1-2.06-2.06z"/><path id="qxa9e" d="M631.44 685.98c0-1.14.92-2.06 2.06-2.06h36.98c1.14 0 2.06.92 2.06 2.06v2.04c0 1.14-.92 2.06-2.06 2.06H633.5a2.06 2.06 0 0 1-2.06-2.06z"/><path id="qxa9f" d="M585 770s3.66-3.77 8.33-3.99c4.68-.22 7.46 2.85 13.25 2.96 5.8.11 6.28-2.48 12.07-2.48 5.8 0 5.51 2.48 11.18 2.48 5.66 0 6.2-2.65 11.47-2.48 5.26.17 7.7 3.11 7.7 3.11"/><clipPath id="qxa9b"><use fill="#fff" xlink:href="#qxa9a"/></clipPath></defs><g><g transform="translate(-516 -625)"><use fill="#fff" fill-opacity="0" stroke="#fff" stroke-miterlimit="50" stroke-width="4" clip-path="url(&quot;#qxa9b&quot;)" xlink:href="#qxa9a"/></g><g transform="translate(-516 -625)"><use fill="#fff" xlink:href="#qxa9c"/></g><g transform="translate(-516 -625)"><use fill="#fff" xlink:href="#qxa9d"/></g><g transform="translate(-516 -625)"><use fill="#fff" xlink:href="#qxa9e"/></g><g transform="translate(-516 -625)"><use fill="#fff" fill-opacity="0" stroke="#1e9df2" stroke-linecap="round" stroke-miterlimit="50" stroke-width="5" xlink:href="#qxa9f"/></g></g></svg>